<svg xmlns="http://www.w3.org/2000/svg" viewBox="0 0 64 64" role="img" aria-label="A/C Radiamex">
  <defs>
    <linearGradient id="bg" x1="0" y1="0" x2="1" y2="1">
      <stop offset="0%" stop-color="#0f1831"/>
      <stop offset="100%" stop-color="#1f3a6f"/>
    </linearGradient>
    <linearGradient id="shield" x1="0" y1="0" x2="0" y2="1">
      <stop offset="0%" stop-color="#2c8be8"/>
      <stop offset="100%" stop-color="#1f5fbb"/>
    </linearGradient>
    <linearGradient id="arrow" x1="0" y1="0" x2="1" y2="1">
      <stop offset="0%" stop-color="#ff9f2f"/>
      <stop offset="100%" stop-color="#e45b1e"/>
    </linearGradient>
  </defs>

  <rect width="64" height="64" rx="14" fill="url(#bg)"/>

  <path d="M17 14h20c6 0 11 5 11 11v13c0 7-6 12-12 12H23c-6 0-10-4-10-10V22c0-5 4-8 4-8z" fill="url(#shield)"/>
  <path d="M18 17h18c5 0 9 4 9 9v11c0 5-4 10-10 10H24c-4 0-8-3-8-8V22c0-3 2-5 2-5z" fill="none" stroke="#8fc5ff" stroke-width="1.8" opacity=".95"/>

  <path d="M22 42c6-8 12-15 21-22 3-2 6-4 10-5-3 5-5 10-9 15-6 7-12 12-21 17z" fill="url(#arrow)"/>
  <path d="M24 22v19M29 20v23M34 19v24" stroke="#7dc1ff" stroke-width="2" opacity=".55"/>
</svg>