<svg xmlns="http://www.w3.org/2000/svg" viewBox="0 0 64 64" role="img" aria-label="A/C Radiamex">
  <defs>
    <linearGradient id="bg" x1="0" y1="0" x2="1" y2="1">
      <stop offset="0%" stop-color="#0d1730"/>
      <stop offset="100%" stop-color="#1d315a"/>
    </linearGradient>
    <linearGradient id="accent" x1="0" y1="0" x2="1" y2="1">
      <stop offset="0%" stop-color="#f7931e"/>
      <stop offset="100%" stop-color="#e25b1e"/>
    </linearGradient>
  </defs>
  <rect width="64" height="64" rx="16" fill="url(#bg)"/>
  <path d="M19 15h16c9 0 15 6 15 15v7c0 9-6 16-16 16H19c-3 0-5-2-5-5V20c0-3 2-5 5-5Z" fill="none" stroke="#2e72c8" stroke-width="3.5"/>
  <path d="M23 42c5-8 11-14 19-20 3-2 6-4 10-5-3 5-6 10-10 15-5 7-11 12-18 17Z" fill="url(#accent)"/>
  <path d="M21 22v20" stroke="#2e72c8" stroke-width="2.5" opacity=".7"/>
  <path d="M27 20v24" stroke="#2e72c8" stroke-width="2.5" opacity=".5"/>
  <path d="M33 19v26" stroke="#2e72c8" stroke-width="2.5" opacity=".35"/>
</svg>